<mxfile host="app.diagrams.net" modified="2023-11-01T18:12:12.929Z" agent="Mozilla/5.0 (Windows NT 10.0; Win64; x64; rv:109.0) Gecko/20100101 Firefox/119.0" etag="JtlfnmzGsGYQt5-nMy9i" version="22.0.8" type="github">
  <diagram id="C5RBs43oDa-KdzZeNtuy" name="Page-1">
    <mxGraphModel dx="2062" dy="1915" grid="1" gridSize="10" guides="1" tooltips="1" connect="1" arrows="1" fold="1" page="1" pageScale="1" pageWidth="827" pageHeight="1169" math="0" shadow="0">
      <root>
        <mxCell id="WIyWlLk6GJQsqaUBKTNV-0" />
        <mxCell id="WIyWlLk6GJQsqaUBKTNV-1" parent="WIyWlLk6GJQsqaUBKTNV-0" />
        <mxCell id="EsNTAb_kacQ6BRdC6cRW-4" value="Object" style="rounded=0;whiteSpace=wrap;html=1;fontFamily=Verdana;fontColor=#000000;" vertex="1" parent="WIyWlLk6GJQsqaUBKTNV-1">
          <mxGeometry x="344" y="-40" width="120" height="60" as="geometry" />
        </mxCell>
        <mxCell id="EsNTAb_kacQ6BRdC6cRW-16" style="edgeStyle=orthogonalEdgeStyle;rounded=0;orthogonalLoop=1;jettySize=auto;html=1;exitX=0.5;exitY=0;exitDx=0;exitDy=0;entryX=0.5;entryY=1;entryDx=0;entryDy=0;fontFamily=Verdana;fontColor=#000000;" edge="1" parent="WIyWlLk6GJQsqaUBKTNV-1" source="EsNTAb_kacQ6BRdC6cRW-6" target="EsNTAb_kacQ6BRdC6cRW-4">
          <mxGeometry relative="1" as="geometry">
            <mxPoint x="300" y="50" as="targetPoint" />
            <Array as="points">
              <mxPoint x="190" y="80" />
              <mxPoint x="404" y="80" />
            </Array>
          </mxGeometry>
        </mxCell>
        <mxCell id="EsNTAb_kacQ6BRdC6cRW-6" value="Person" style="swimlane;fontStyle=0;childLayout=stackLayout;horizontal=1;startSize=30;horizontalStack=0;resizeParent=1;resizeParentMax=0;resizeLast=0;collapsible=1;marginBottom=0;whiteSpace=wrap;html=1;fillColor=#B1DDF0;strokeColor=#10739e;fontFamily=Verdana;fontColor=#000000;" vertex="1" parent="WIyWlLk6GJQsqaUBKTNV-1">
          <mxGeometry x="60" y="120" width="260" height="120" as="geometry">
            <mxRectangle x="120" y="120" width="60" height="30" as="alternateBounds" />
          </mxGeometry>
        </mxCell>
        <mxCell id="EsNTAb_kacQ6BRdC6cRW-8" value="name" style="text;strokeColor=#2D7600;fillColor=#009900;align=left;verticalAlign=middle;spacingLeft=4;spacingRight=4;overflow=hidden;points=[[0,0.5],[1,0.5]];portConstraint=eastwest;rotatable=0;whiteSpace=wrap;html=1;fontColor=#000000;fontFamily=Verdana;" vertex="1" parent="EsNTAb_kacQ6BRdC6cRW-6">
          <mxGeometry y="30" width="260" height="30" as="geometry" />
        </mxCell>
        <mxCell id="EsNTAb_kacQ6BRdC6cRW-9" value="&lt;div&gt;birthday&lt;/div&gt;" style="text;strokeColor=#2D7600;fillColor=#009900;align=left;verticalAlign=middle;spacingLeft=4;spacingRight=4;overflow=hidden;points=[[0,0.5],[1,0.5]];portConstraint=eastwest;rotatable=0;whiteSpace=wrap;html=1;fontColor=#000000;fontFamily=Verdana;" vertex="1" parent="EsNTAb_kacQ6BRdC6cRW-6">
          <mxGeometry y="60" width="260" height="30" as="geometry" />
        </mxCell>
        <mxCell id="EsNTAb_kacQ6BRdC6cRW-22" value="lastName" style="text;strokeColor=#2D7600;fillColor=#009900;align=left;verticalAlign=middle;spacingLeft=4;spacingRight=4;overflow=hidden;points=[[0,0.5],[1,0.5]];portConstraint=eastwest;rotatable=0;whiteSpace=wrap;html=1;fontColor=#000000;fontFamily=Verdana;" vertex="1" parent="EsNTAb_kacQ6BRdC6cRW-6">
          <mxGeometry y="90" width="260" height="30" as="geometry" />
        </mxCell>
        <mxCell id="EsNTAb_kacQ6BRdC6cRW-10" value="&lt;div&gt;Grades&lt;/div&gt;" style="swimlane;fontStyle=0;childLayout=stackLayout;horizontal=1;startSize=30;horizontalStack=0;resizeParent=1;resizeParentMax=0;resizeLast=0;collapsible=1;marginBottom=0;whiteSpace=wrap;html=1;fillColor=#b1ddf0;strokeColor=#10739e;fontFamily=Verdana;fontColor=#000000;" vertex="1" parent="WIyWlLk6GJQsqaUBKTNV-1">
          <mxGeometry x="480" y="120" width="210" height="120" as="geometry" />
        </mxCell>
        <mxCell id="EsNTAb_kacQ6BRdC6cRW-11" value="students[]" style="text;strokeColor=#36393d;fillColor=#CC99FF;align=left;verticalAlign=middle;spacingLeft=4;spacingRight=4;overflow=hidden;points=[[0,0.5],[1,0.5]];portConstraint=eastwest;rotatable=0;whiteSpace=wrap;html=1;fontFamily=Verdana;fontColor=#000000;" vertex="1" parent="EsNTAb_kacQ6BRdC6cRW-10">
          <mxGeometry y="30" width="210" height="30" as="geometry" />
        </mxCell>
        <mxCell id="EsNTAb_kacQ6BRdC6cRW-12" value="grades{}" style="text;strokeColor=#B20000;fillColor=#FF66FF;align=left;verticalAlign=middle;spacingLeft=4;spacingRight=4;overflow=hidden;points=[[0,0.5],[1,0.5]];portConstraint=eastwest;rotatable=0;whiteSpace=wrap;html=1;fontColor=#000000;fontFamily=Verdana;" vertex="1" parent="EsNTAb_kacQ6BRdC6cRW-10">
          <mxGeometry y="60" width="210" height="30" as="geometry" />
        </mxCell>
        <mxCell id="EsNTAb_kacQ6BRdC6cRW-13" value="isSorted" style="text;strokeColor=#314354;fillColor=#007FFF;align=left;verticalAlign=middle;spacingLeft=4;spacingRight=4;overflow=hidden;points=[[0,0.5],[1,0.5]];portConstraint=eastwest;rotatable=0;whiteSpace=wrap;html=1;fontColor=#000000;fontFamily=Verdana;" vertex="1" parent="EsNTAb_kacQ6BRdC6cRW-10">
          <mxGeometry y="90" width="210" height="30" as="geometry" />
        </mxCell>
        <mxCell id="EsNTAb_kacQ6BRdC6cRW-29" value="DataType Key" style="swimlane;whiteSpace=wrap;html=1;startSize=23;fontFamily=Verdana;fontColor=#000000;" vertex="1" parent="WIyWlLk6GJQsqaUBKTNV-1">
          <mxGeometry x="750" y="-20" width="190" height="220" as="geometry" />
        </mxCell>
        <mxCell id="EsNTAb_kacQ6BRdC6cRW-32" value="&lt;div&gt;Integer&lt;/div&gt;" style="rounded=0;whiteSpace=wrap;html=1;gradientColor=none;fillColor=#FF8000;fontFamily=Verdana;fontColor=#000000;" vertex="1" parent="EsNTAb_kacQ6BRdC6cRW-29">
          <mxGeometry y="60" width="190" height="40" as="geometry" />
        </mxCell>
        <mxCell id="EsNTAb_kacQ6BRdC6cRW-35" value="String" style="rounded=0;whiteSpace=wrap;html=1;gradientColor=none;fillColor=#009900;fontFamily=Verdana;fontColor=#000000;" vertex="1" parent="EsNTAb_kacQ6BRdC6cRW-29">
          <mxGeometry y="100" width="190" height="40" as="geometry" />
        </mxCell>
        <mxCell id="EsNTAb_kacQ6BRdC6cRW-37" value="&lt;div&gt;Array&lt;/div&gt;" style="rounded=0;whiteSpace=wrap;html=1;gradientColor=none;fillColor=#CC99FF;fontFamily=Verdana;fontColor=#000000;" vertex="1" parent="EsNTAb_kacQ6BRdC6cRW-29">
          <mxGeometry y="140" width="190" height="40" as="geometry" />
        </mxCell>
        <mxCell id="EsNTAb_kacQ6BRdC6cRW-39" value="&lt;div&gt;Boolean&lt;/div&gt;" style="rounded=0;whiteSpace=wrap;html=1;gradientColor=none;fillColor=#007FFF;fontFamily=Verdana;fontColor=#000000;" vertex="1" parent="EsNTAb_kacQ6BRdC6cRW-29">
          <mxGeometry y="20" width="190" height="40" as="geometry" />
        </mxCell>
        <mxCell id="EsNTAb_kacQ6BRdC6cRW-38" value="Dictionary" style="rounded=0;whiteSpace=wrap;html=1;gradientColor=none;fillColor=#FF66FF;fontFamily=Verdana;fontColor=#000000;" vertex="1" parent="EsNTAb_kacQ6BRdC6cRW-29">
          <mxGeometry y="180" width="190" height="40" as="geometry" />
        </mxCell>
        <mxCell id="EsNTAb_kacQ6BRdC6cRW-118" value="" style="edgeStyle=orthogonalEdgeStyle;rounded=0;orthogonalLoop=1;jettySize=auto;html=1;exitX=0.5;exitY=0;exitDx=0;exitDy=0;fontFamily=Verdana;fontColor=#000000;" edge="1" parent="WIyWlLk6GJQsqaUBKTNV-1" source="EsNTAb_kacQ6BRdC6cRW-46">
          <mxGeometry relative="1" as="geometry">
            <mxPoint x="652.5" y="775" as="sourcePoint" />
            <mxPoint x="190" y="700" as="targetPoint" />
          </mxGeometry>
        </mxCell>
        <mxCell id="EsNTAb_kacQ6BRdC6cRW-46" value="Student" style="rounded=0;whiteSpace=wrap;html=1;fillColor=#B1DDF0;fontFamily=Verdana;fontColor=#000000;" vertex="1" parent="WIyWlLk6GJQsqaUBKTNV-1">
          <mxGeometry x="360" y="810" width="120" height="30" as="geometry" />
        </mxCell>
        <mxCell id="EsNTAb_kacQ6BRdC6cRW-48" value="Grad" style="rounded=0;whiteSpace=wrap;html=1;fillColor=#B1DDF0;fontFamily=Verdana;fontColor=#000000;" vertex="1" parent="WIyWlLk6GJQsqaUBKTNV-1">
          <mxGeometry x="390" y="955" width="80" height="40" as="geometry" />
        </mxCell>
        <mxCell id="EsNTAb_kacQ6BRdC6cRW-49" value="Transfer Student" style="rounded=0;whiteSpace=wrap;html=1;fillColor=#B1DDF0;fontFamily=Verdana;fontColor=#000000;" vertex="1" parent="WIyWlLk6GJQsqaUBKTNV-1">
          <mxGeometry x="510" y="955" width="110" height="40" as="geometry" />
        </mxCell>
        <mxCell id="EsNTAb_kacQ6BRdC6cRW-50" value="" style="endArrow=none;html=1;rounded=0;fontFamily=Verdana;fontColor=#000000;" edge="1" parent="WIyWlLk6GJQsqaUBKTNV-1">
          <mxGeometry width="50" height="50" relative="1" as="geometry">
            <mxPoint x="280" y="885" as="sourcePoint" />
            <mxPoint x="570" y="880" as="targetPoint" />
            <Array as="points" />
          </mxGeometry>
        </mxCell>
        <mxCell id="EsNTAb_kacQ6BRdC6cRW-70" value="Professor" style="swimlane;fontStyle=0;childLayout=stackLayout;horizontal=1;startSize=30;horizontalStack=0;resizeParent=1;resizeParentMax=0;resizeLast=0;collapsible=1;marginBottom=0;whiteSpace=wrap;html=1;fillColor=#B1DDF0;fontFamily=Verdana;fontColor=#000000;" vertex="1" parent="WIyWlLk6GJQsqaUBKTNV-1">
          <mxGeometry x="-220" y="820" width="290" height="120" as="geometry" />
        </mxCell>
        <mxCell id="EsNTAb_kacQ6BRdC6cRW-71" value="department" style="text;strokeColor=none;fillColor=#009900;align=left;verticalAlign=middle;spacingLeft=4;spacingRight=4;overflow=hidden;points=[[0,0.5],[1,0.5]];portConstraint=eastwest;rotatable=0;whiteSpace=wrap;html=1;fontFamily=Verdana;fontColor=#000000;" vertex="1" parent="EsNTAb_kacQ6BRdC6cRW-70">
          <mxGeometry y="30" width="290" height="30" as="geometry" />
        </mxCell>
        <mxCell id="EsNTAb_kacQ6BRdC6cRW-137" style="edgeStyle=orthogonalEdgeStyle;rounded=0;orthogonalLoop=1;jettySize=auto;html=1;exitX=0.75;exitY=1;exitDx=0;exitDy=0;fontFamily=Verdana;fontColor=#000000;" edge="1" parent="EsNTAb_kacQ6BRdC6cRW-70" source="EsNTAb_kacQ6BRdC6cRW-117">
          <mxGeometry relative="1" as="geometry">
            <mxPoint x="206" y="110" as="targetPoint" />
          </mxGeometry>
        </mxCell>
        <mxCell id="EsNTAb_kacQ6BRdC6cRW-116" value="__init__(String, String)" style="shape=process;whiteSpace=wrap;html=1;backgroundOutline=1;fontFamily=Verdana;fontColor=#000000;" vertex="1" parent="EsNTAb_kacQ6BRdC6cRW-70">
          <mxGeometry y="60" width="290" height="30" as="geometry" />
        </mxCell>
        <mxCell id="EsNTAb_kacQ6BRdC6cRW-117" value="lecture(String):String" style="shape=process;whiteSpace=wrap;html=1;backgroundOutline=1;fontFamily=Verdana;fontColor=#000000;" vertex="1" parent="EsNTAb_kacQ6BRdC6cRW-70">
          <mxGeometry y="90" width="290" height="30" as="geometry" />
        </mxCell>
        <mxCell id="EsNTAb_kacQ6BRdC6cRW-74" value="UG" style="swimlane;fontStyle=0;childLayout=stackLayout;horizontal=1;startSize=30;horizontalStack=0;resizeParent=1;resizeParentMax=0;resizeLast=0;collapsible=1;marginBottom=0;whiteSpace=wrap;html=1;fillColor=#B1DDF0;fontColor=#000000;strokeColor=#C73500;fontFamily=Verdana;" vertex="1" parent="WIyWlLk6GJQsqaUBKTNV-1">
          <mxGeometry x="200" y="955" width="170" height="130" as="geometry" />
        </mxCell>
        <mxCell id="EsNTAb_kacQ6BRdC6cRW-75" value="year" style="text;strokeColor=#C73500;fillColor=#fa6800;align=left;verticalAlign=middle;spacingLeft=4;spacingRight=4;overflow=hidden;points=[[0,0.5],[1,0.5]];portConstraint=eastwest;rotatable=0;whiteSpace=wrap;html=1;fontColor=#000000;fontFamily=Verdana;" vertex="1" parent="EsNTAb_kacQ6BRdC6cRW-74">
          <mxGeometry y="30" width="170" height="30" as="geometry" />
        </mxCell>
        <mxCell id="EsNTAb_kacQ6BRdC6cRW-130" value="__init__(String, Int)" style="shape=process;whiteSpace=wrap;html=1;backgroundOutline=1;fontFamily=Verdana;fontColor=#000000;" vertex="1" parent="EsNTAb_kacQ6BRdC6cRW-74">
          <mxGeometry y="60" width="170" height="40" as="geometry" />
        </mxCell>
        <mxCell id="EsNTAb_kacQ6BRdC6cRW-131" value="getClass():Int" style="shape=process;whiteSpace=wrap;html=1;backgroundOutline=1;fontFamily=Verdana;fontColor=#000000;" vertex="1" parent="EsNTAb_kacQ6BRdC6cRW-74">
          <mxGeometry y="100" width="170" height="30" as="geometry" />
        </mxCell>
        <mxCell id="EsNTAb_kacQ6BRdC6cRW-84" value="" style="endArrow=none;html=1;rounded=0;fontFamily=Verdana;fontColor=#000000;" edge="1" parent="WIyWlLk6GJQsqaUBKTNV-1">
          <mxGeometry width="50" height="50" relative="1" as="geometry">
            <mxPoint x="580" y="80" as="sourcePoint" />
            <mxPoint x="400" y="80" as="targetPoint" />
          </mxGeometry>
        </mxCell>
        <mxCell id="EsNTAb_kacQ6BRdC6cRW-85" value="" style="endArrow=none;html=1;rounded=0;fontFamily=Verdana;fontColor=#000000;" edge="1" parent="WIyWlLk6GJQsqaUBKTNV-1" source="EsNTAb_kacQ6BRdC6cRW-10">
          <mxGeometry width="50" height="50" relative="1" as="geometry">
            <mxPoint x="310" y="250" as="sourcePoint" />
            <mxPoint x="580" y="80" as="targetPoint" />
          </mxGeometry>
        </mxCell>
        <mxCell id="EsNTAb_kacQ6BRdC6cRW-87" value="Class" style="swimlane;fontStyle=0;childLayout=stackLayout;horizontal=1;startSize=30;horizontalStack=0;resizeParent=1;resizeParentMax=0;resizeLast=0;collapsible=1;marginBottom=0;whiteSpace=wrap;html=1;fillColor=#A9C4EB;fontColor=#000000;strokeColor=#006EAF;fontFamily=Verdana;" vertex="1" parent="WIyWlLk6GJQsqaUBKTNV-1">
          <mxGeometry x="760" y="500" width="190" height="130" as="geometry" />
        </mxCell>
        <mxCell id="EsNTAb_kacQ6BRdC6cRW-88" value="&lt;div&gt;member variable&lt;/div&gt;" style="text;strokeColor=none;fillColor=none;align=left;verticalAlign=middle;spacingLeft=4;spacingRight=4;overflow=hidden;points=[[0,0.5],[1,0.5]];portConstraint=eastwest;rotatable=0;whiteSpace=wrap;html=1;fontFamily=Verdana;fontColor=#000000;" vertex="1" parent="EsNTAb_kacQ6BRdC6cRW-87">
          <mxGeometry y="30" width="190" height="30" as="geometry" />
        </mxCell>
        <mxCell id="EsNTAb_kacQ6BRdC6cRW-86" value="&lt;div&gt;Function(param: Type): return Type&lt;br&gt;&lt;/div&gt;" style="shape=process;whiteSpace=wrap;html=1;backgroundOutline=1;fontFamily=Verdana;fontColor=#000000;" vertex="1" parent="EsNTAb_kacQ6BRdC6cRW-87">
          <mxGeometry y="60" width="190" height="70" as="geometry" />
        </mxCell>
        <mxCell id="EsNTAb_kacQ6BRdC6cRW-91" value="&lt;div&gt;init()&lt;/div&gt;" style="shape=process;whiteSpace=wrap;html=1;backgroundOutline=1;fontFamily=Verdana;fontColor=#000000;" vertex="1" parent="WIyWlLk6GJQsqaUBKTNV-1">
          <mxGeometry x="480" y="240" width="210" height="40" as="geometry" />
        </mxCell>
        <mxCell id="EsNTAb_kacQ6BRdC6cRW-93" value="addStudent(Student)" style="shape=process;whiteSpace=wrap;html=1;backgroundOutline=1;fontFamily=Verdana;fontColor=#000000;" vertex="1" parent="WIyWlLk6GJQsqaUBKTNV-1">
          <mxGeometry x="480" y="280" width="210" height="40" as="geometry" />
        </mxCell>
        <mxCell id="EsNTAb_kacQ6BRdC6cRW-95" value="addGrade(Student, Float)" style="shape=process;whiteSpace=wrap;html=1;backgroundOutline=1;fontFamily=Verdana;fontColor=#000000;" vertex="1" parent="WIyWlLk6GJQsqaUBKTNV-1">
          <mxGeometry x="480" y="320" width="210" height="40" as="geometry" />
        </mxCell>
        <mxCell id="EsNTAb_kacQ6BRdC6cRW-96" value="getGrades(Student):Array" style="shape=process;whiteSpace=wrap;html=1;backgroundOutline=1;fontFamily=Verdana;fontColor=#000000;" vertex="1" parent="WIyWlLk6GJQsqaUBKTNV-1">
          <mxGeometry x="480" y="360" width="210" height="40" as="geometry" />
        </mxCell>
        <mxCell id="EsNTAb_kacQ6BRdC6cRW-97" value="allStudents():Array[Student]" style="shape=process;whiteSpace=wrap;html=1;backgroundOutline=1;fontFamily=Verdana;fontColor=#000000;" vertex="1" parent="WIyWlLk6GJQsqaUBKTNV-1">
          <mxGeometry x="480" y="400" width="210" height="40" as="geometry" />
        </mxCell>
        <mxCell id="EsNTAb_kacQ6BRdC6cRW-98" value="gradeReport(Grades):String" style="shape=process;whiteSpace=wrap;html=1;backgroundOutline=1;fontFamily=Verdana;fontColor=#000000;" vertex="1" parent="WIyWlLk6GJQsqaUBKTNV-1">
          <mxGeometry x="480" y="440" width="210" height="40" as="geometry" />
        </mxCell>
        <mxCell id="EsNTAb_kacQ6BRdC6cRW-100" value="init(String)" style="shape=process;whiteSpace=wrap;html=1;backgroundOutline=1;fontFamily=Verdana;fontColor=#000000;" vertex="1" parent="WIyWlLk6GJQsqaUBKTNV-1">
          <mxGeometry x="60" y="240" width="260" height="30" as="geometry" />
        </mxCell>
        <mxCell id="EsNTAb_kacQ6BRdC6cRW-101" value="setBirthday(Int, Int, Int)" style="shape=process;whiteSpace=wrap;html=1;backgroundOutline=1;fontFamily=Verdana;fontColor=#000000;" vertex="1" parent="WIyWlLk6GJQsqaUBKTNV-1">
          <mxGeometry x="60" y="270" width="260" height="30" as="geometry" />
        </mxCell>
        <mxCell id="EsNTAb_kacQ6BRdC6cRW-102" value="getLastName():String" style="shape=process;whiteSpace=wrap;html=1;backgroundOutline=1;fontFamily=Verdana;fontColor=#000000;" vertex="1" parent="WIyWlLk6GJQsqaUBKTNV-1">
          <mxGeometry x="60" y="300" width="260" height="30" as="geometry" />
        </mxCell>
        <mxCell id="EsNTAb_kacQ6BRdC6cRW-103" value="getAge():Int" style="shape=process;whiteSpace=wrap;html=1;backgroundOutline=1;fontFamily=Verdana;fontColor=#000000;" vertex="1" parent="WIyWlLk6GJQsqaUBKTNV-1">
          <mxGeometry x="60" y="330" width="260" height="30" as="geometry" />
        </mxCell>
        <mxCell id="EsNTAb_kacQ6BRdC6cRW-104" value="__str__():String" style="shape=process;whiteSpace=wrap;html=1;backgroundOutline=1;fontFamily=Verdana;fontColor=#000000;" vertex="1" parent="WIyWlLk6GJQsqaUBKTNV-1">
          <mxGeometry x="60" y="360" width="260" height="30" as="geometry" />
        </mxCell>
        <mxCell id="EsNTAb_kacQ6BRdC6cRW-105" value="__lt__(Person):Boolean" style="shape=process;whiteSpace=wrap;html=1;backgroundOutline=1;fontFamily=Verdana;fontColor=#000000;" vertex="1" parent="WIyWlLk6GJQsqaUBKTNV-1">
          <mxGeometry x="60" y="390" width="260" height="30" as="geometry" />
        </mxCell>
        <mxCell id="EsNTAb_kacQ6BRdC6cRW-150" value="" style="edgeStyle=orthogonalEdgeStyle;rounded=0;orthogonalLoop=1;jettySize=auto;html=1;fontFamily=Verdana;fontColor=#000000;" edge="1" parent="WIyWlLk6GJQsqaUBKTNV-1" source="EsNTAb_kacQ6BRdC6cRW-24" target="EsNTAb_kacQ6BRdC6cRW-105">
          <mxGeometry relative="1" as="geometry" />
        </mxCell>
        <mxCell id="EsNTAb_kacQ6BRdC6cRW-24" value="MITPerson" style="swimlane;fontStyle=0;childLayout=stackLayout;horizontal=1;startSize=30;horizontalStack=0;resizeParent=1;resizeParentMax=0;resizeLast=0;collapsible=1;marginBottom=0;whiteSpace=wrap;html=1;fillColor=#b1ddf0;strokeColor=#10739e;fontFamily=Verdana;fontColor=#000000;" vertex="1" parent="WIyWlLk6GJQsqaUBKTNV-1">
          <mxGeometry x="35" y="470" width="310" height="220" as="geometry">
            <mxRectangle x="30" y="470" width="100" height="30" as="alternateBounds" />
          </mxGeometry>
        </mxCell>
        <mxCell id="EsNTAb_kacQ6BRdC6cRW-25" value="idNum" style="text;strokeColor=#666666;fillColor=#FF8000;align=left;verticalAlign=middle;spacingLeft=4;spacingRight=4;overflow=hidden;points=[[0,0.5],[1,0.5]];portConstraint=eastwest;rotatable=0;whiteSpace=wrap;html=1;fontColor=#000000;fontFamily=Verdana;" vertex="1" parent="EsNTAb_kacQ6BRdC6cRW-24">
          <mxGeometry y="30" width="310" height="40" as="geometry" />
        </mxCell>
        <mxCell id="EsNTAb_kacQ6BRdC6cRW-107" value="__init__(String)" style="shape=process;whiteSpace=wrap;html=1;backgroundOutline=1;fontFamily=Verdana;fontColor=#000000;" vertex="1" parent="EsNTAb_kacQ6BRdC6cRW-24">
          <mxGeometry y="70" width="310" height="30" as="geometry" />
        </mxCell>
        <mxCell id="EsNTAb_kacQ6BRdC6cRW-109" value="getIdNum(String):Int" style="shape=process;whiteSpace=wrap;html=1;backgroundOutline=1;fontFamily=Verdana;fontColor=#000000;" vertex="1" parent="EsNTAb_kacQ6BRdC6cRW-24">
          <mxGeometry y="100" width="310" height="30" as="geometry" />
        </mxCell>
        <mxCell id="EsNTAb_kacQ6BRdC6cRW-110" value="speak(String):String" style="shape=process;whiteSpace=wrap;html=1;backgroundOutline=1;fontFamily=Verdana;fontColor=#000000;" vertex="1" parent="EsNTAb_kacQ6BRdC6cRW-24">
          <mxGeometry y="130" width="310" height="30" as="geometry" />
        </mxCell>
        <mxCell id="EsNTAb_kacQ6BRdC6cRW-112" value="__lt__(MITPerson):Boolean" style="shape=process;whiteSpace=wrap;html=1;backgroundOutline=1;fontFamily=Verdana;fontColor=#000000;" vertex="1" parent="EsNTAb_kacQ6BRdC6cRW-24">
          <mxGeometry y="160" width="310" height="30" as="geometry" />
        </mxCell>
        <mxCell id="EsNTAb_kacQ6BRdC6cRW-113" value="isStudent(Object):Boolean" style="shape=process;whiteSpace=wrap;html=1;backgroundOutline=1;fontFamily=Verdana;fontColor=#000000;" vertex="1" parent="EsNTAb_kacQ6BRdC6cRW-24">
          <mxGeometry y="190" width="310" height="30" as="geometry" />
        </mxCell>
        <mxCell id="EsNTAb_kacQ6BRdC6cRW-121" value="" style="endArrow=none;html=1;rounded=0;exitX=0.466;exitY=0.071;exitDx=0;exitDy=0;exitPerimeter=0;fontFamily=Verdana;fontColor=#000000;" edge="1" parent="WIyWlLk6GJQsqaUBKTNV-1" source="EsNTAb_kacQ6BRdC6cRW-70">
          <mxGeometry width="50" height="50" relative="1" as="geometry">
            <mxPoint x="-75" y="810" as="sourcePoint" />
            <mxPoint x="190" y="750" as="targetPoint" />
            <Array as="points">
              <mxPoint x="-80" y="760" />
            </Array>
          </mxGeometry>
        </mxCell>
        <mxCell id="EsNTAb_kacQ6BRdC6cRW-124" value="" style="endArrow=none;html=1;rounded=0;exitX=0.459;exitY=0.02;exitDx=0;exitDy=0;exitPerimeter=0;fontFamily=Verdana;fontColor=#000000;" edge="1" parent="WIyWlLk6GJQsqaUBKTNV-1" source="EsNTAb_kacQ6BRdC6cRW-74">
          <mxGeometry width="50" height="50" relative="1" as="geometry">
            <mxPoint x="270" y="965" as="sourcePoint" />
            <mxPoint x="280" y="885" as="targetPoint" />
          </mxGeometry>
        </mxCell>
        <mxCell id="EsNTAb_kacQ6BRdC6cRW-125" value="" style="endArrow=none;html=1;rounded=0;exitX=0.5;exitY=0;exitDx=0;exitDy=0;fontFamily=Verdana;fontColor=#000000;" edge="1" parent="WIyWlLk6GJQsqaUBKTNV-1" source="EsNTAb_kacQ6BRdC6cRW-49">
          <mxGeometry width="50" height="50" relative="1" as="geometry">
            <mxPoint x="170" y="930" as="sourcePoint" />
            <mxPoint x="565" y="880" as="targetPoint" />
          </mxGeometry>
        </mxCell>
        <mxCell id="EsNTAb_kacQ6BRdC6cRW-127" value="" style="endArrow=none;html=1;rounded=0;exitX=0.5;exitY=0;exitDx=0;exitDy=0;fontFamily=Verdana;fontColor=#000000;" edge="1" parent="WIyWlLk6GJQsqaUBKTNV-1">
          <mxGeometry width="50" height="50" relative="1" as="geometry">
            <mxPoint x="429.5" y="960" as="sourcePoint" />
            <mxPoint x="429.5" y="880" as="targetPoint" />
          </mxGeometry>
        </mxCell>
        <mxCell id="EsNTAb_kacQ6BRdC6cRW-129" value="" style="endArrow=classic;html=1;rounded=0;fontFamily=Verdana;fontColor=#000000;" edge="1" parent="WIyWlLk6GJQsqaUBKTNV-1">
          <mxGeometry width="50" height="50" relative="1" as="geometry">
            <mxPoint x="430" y="880" as="sourcePoint" />
            <mxPoint x="430" y="840" as="targetPoint" />
            <Array as="points" />
          </mxGeometry>
        </mxCell>
        <mxCell id="EsNTAb_kacQ6BRdC6cRW-133" value="B" style="rounded=0;whiteSpace=wrap;html=1;fontFamily=Verdana;fontColor=#000000;" vertex="1" parent="WIyWlLk6GJQsqaUBKTNV-1">
          <mxGeometry x="880" y="270" width="70" height="50" as="geometry" />
        </mxCell>
        <mxCell id="EsNTAb_kacQ6BRdC6cRW-135" value="" style="edgeStyle=orthogonalEdgeStyle;rounded=0;orthogonalLoop=1;jettySize=auto;html=1;fontFamily=Verdana;fontColor=#000000;" edge="1" parent="WIyWlLk6GJQsqaUBKTNV-1" source="EsNTAb_kacQ6BRdC6cRW-134" target="EsNTAb_kacQ6BRdC6cRW-133">
          <mxGeometry relative="1" as="geometry" />
        </mxCell>
        <mxCell id="EsNTAb_kacQ6BRdC6cRW-134" value="A" style="rounded=0;whiteSpace=wrap;html=1;fontFamily=Verdana;fontColor=#000000;" vertex="1" parent="WIyWlLk6GJQsqaUBKTNV-1">
          <mxGeometry x="750" y="270" width="70" height="50" as="geometry" />
        </mxCell>
        <mxCell id="EsNTAb_kacQ6BRdC6cRW-136" value="A inherits from B" style="rounded=0;whiteSpace=wrap;html=1;fontFamily=Verdana;fontColor=#000000;" vertex="1" parent="WIyWlLk6GJQsqaUBKTNV-1">
          <mxGeometry x="750" y="230" width="200" height="40" as="geometry" />
        </mxCell>
        <mxCell id="EsNTAb_kacQ6BRdC6cRW-141" value="A aggregates B" style="rounded=0;whiteSpace=wrap;html=1;fontFamily=Verdana;fontColor=#000000;" vertex="1" parent="WIyWlLk6GJQsqaUBKTNV-1">
          <mxGeometry x="750" y="340" width="200" height="60" as="geometry" />
        </mxCell>
        <mxCell id="EsNTAb_kacQ6BRdC6cRW-142" value="" style="endArrow=none;dashed=1;html=1;dashPattern=1 3;strokeWidth=2;rounded=0;fontFamily=Verdana;fontColor=#000000;" edge="1" parent="WIyWlLk6GJQsqaUBKTNV-1" target="EsNTAb_kacQ6BRdC6cRW-143">
          <mxGeometry width="50" height="50" relative="1" as="geometry">
            <mxPoint x="885" y="425" as="sourcePoint" />
            <mxPoint x="900" y="420" as="targetPoint" />
          </mxGeometry>
        </mxCell>
        <mxCell id="EsNTAb_kacQ6BRdC6cRW-143" value="B" style="rounded=0;whiteSpace=wrap;html=1;fontFamily=Verdana;fontColor=#000000;" vertex="1" parent="WIyWlLk6GJQsqaUBKTNV-1">
          <mxGeometry x="890" y="400" width="60" height="50" as="geometry" />
        </mxCell>
        <mxCell id="EsNTAb_kacQ6BRdC6cRW-146" value="" style="endArrow=none;dashed=1;html=1;dashPattern=1 3;strokeWidth=2;rounded=0;fontFamily=Verdana;fontColor=#000000;" edge="1" parent="WIyWlLk6GJQsqaUBKTNV-1" target="EsNTAb_kacQ6BRdC6cRW-144">
          <mxGeometry width="50" height="50" relative="1" as="geometry">
            <mxPoint x="780" y="420" as="sourcePoint" />
            <mxPoint x="890" y="424" as="targetPoint" />
          </mxGeometry>
        </mxCell>
        <mxCell id="EsNTAb_kacQ6BRdC6cRW-144" value="A" style="rounded=0;whiteSpace=wrap;html=1;fontFamily=Verdana;fontColor=#000000;" vertex="1" parent="WIyWlLk6GJQsqaUBKTNV-1">
          <mxGeometry x="750" y="400" width="60" height="50" as="geometry" />
        </mxCell>
        <mxCell id="EsNTAb_kacQ6BRdC6cRW-153" value="" style="endArrow=none;dashed=1;html=1;dashPattern=1 3;strokeWidth=2;rounded=0;fontFamily=Verdana;fontColor=#000000;" edge="1" parent="WIyWlLk6GJQsqaUBKTNV-1" source="EsNTAb_kacQ6BRdC6cRW-144">
          <mxGeometry width="50" height="50" relative="1" as="geometry">
            <mxPoint x="810" y="425" as="sourcePoint" />
            <mxPoint x="810" y="425" as="targetPoint" />
          </mxGeometry>
        </mxCell>
        <mxCell id="EsNTAb_kacQ6BRdC6cRW-159" value="" style="endArrow=none;html=1;rounded=0;entryX=1;entryY=0.5;entryDx=0;entryDy=0;fillColor=#008a00;strokeColor=#005700;strokeWidth=2;fontFamily=Verdana;fontColor=#000000;" edge="1" parent="WIyWlLk6GJQsqaUBKTNV-1" source="EsNTAb_kacQ6BRdC6cRW-160" target="EsNTAb_kacQ6BRdC6cRW-144">
          <mxGeometry width="50" height="50" relative="1" as="geometry">
            <mxPoint x="300" y="550" as="sourcePoint" />
            <mxPoint x="810" y="420" as="targetPoint" />
          </mxGeometry>
        </mxCell>
        <mxCell id="EsNTAb_kacQ6BRdC6cRW-161" value="" style="endArrow=none;html=1;rounded=0;entryX=1;entryY=0.5;entryDx=0;entryDy=0;fontFamily=Verdana;fontColor=#000000;" edge="1" parent="WIyWlLk6GJQsqaUBKTNV-1" source="EsNTAb_kacQ6BRdC6cRW-143" target="EsNTAb_kacQ6BRdC6cRW-160">
          <mxGeometry width="50" height="50" relative="1" as="geometry">
            <mxPoint x="890" y="425" as="sourcePoint" />
            <mxPoint x="810" y="425" as="targetPoint" />
          </mxGeometry>
        </mxCell>
        <mxCell id="EsNTAb_kacQ6BRdC6cRW-160" value="" style="rhombus;whiteSpace=wrap;html=1;fillColor=#60a917;fontColor=#000000;strokeColor=#2D7600;fontFamily=Verdana;" vertex="1" parent="WIyWlLk6GJQsqaUBKTNV-1">
          <mxGeometry x="850" y="410" width="50" height="30" as="geometry" />
        </mxCell>
        <mxCell id="EsNTAb_kacQ6BRdC6cRW-162" value="" style="endArrow=classic;html=1;rounded=0;exitX=-0.007;exitY=0.11;exitDx=0;exitDy=0;exitPerimeter=0;entryX=0.5;entryY=0;entryDx=0;entryDy=0;strokeColor=#00CC00;strokeWidth=2;fontFamily=Verdana;fontColor=#000000;" edge="1" parent="WIyWlLk6GJQsqaUBKTNV-1" target="EsNTAb_kacQ6BRdC6cRW-158">
          <mxGeometry width="50" height="50" relative="1" as="geometry">
            <mxPoint x="488.52999999999975" y="120.00000000000027" as="sourcePoint" />
            <mxPoint x="430" y="796.8" as="targetPoint" />
          </mxGeometry>
        </mxCell>
        <mxCell id="EsNTAb_kacQ6BRdC6cRW-158" value="" style="rhombus;whiteSpace=wrap;html=1;rotation=8;fillColor=#60a917;fontColor=#000000;strokeColor=#2D7600;fontFamily=Verdana;" vertex="1" parent="WIyWlLk6GJQsqaUBKTNV-1">
          <mxGeometry x="410" y="750" width="40" height="60" as="geometry" />
        </mxCell>
      </root>
    </mxGraphModel>
  </diagram>
</mxfile>
